<svg width="12" height="12" viewBox="0 0 12 12" fill="none" xmlns="http://www.w3.org/2000/svg">
<path d="M10.2134 2.98975C9.97543 2.98975 9.74282 2.91918 9.54497 2.78698C9.34712 2.65478 9.19291 2.46688 9.10185 2.24704C9.01078 2.02719 8.98696 1.78529 9.03338 1.5519C9.0798 1.31852 9.19439 1.10414 9.36265 0.935884C9.53091 0.767624 9.74529 0.653037 9.97867 0.606614C10.2121 0.560192 10.454 0.584017 10.6738 0.675079C10.8936 0.766141 11.0815 0.920348 11.2137 1.1182C11.3459 1.31605 11.4165 1.54867 11.4165 1.78662C11.4168 1.94471 11.386 2.10132 11.3256 2.24744C11.2653 2.39356 11.1767 2.52633 11.0649 2.63812C10.9531 2.74991 10.8203 2.83851 10.6742 2.89886C10.5281 2.9592 10.3715 2.99009 10.2134 2.98975ZM5 3.79154C5.63457 3.79154 6.2549 3.97972 6.78253 4.33227C7.31016 4.68482 7.7214 5.18592 7.96424 5.77219C8.20708 6.35846 8.27062 7.00358 8.14682 7.62596C8.02302 8.24835 7.71744 8.82004 7.26873 9.26875C6.82001 9.71747 6.24832 10.023 5.62594 10.1468C5.00355 10.2706 4.35844 10.2071 3.77217 9.96427C3.18589 9.72142 2.6848 9.31019 2.33225 8.78255C1.9797 8.25492 1.79152 7.6346 1.79152 7.00002C1.79243 6.14936 2.13076 5.3338 2.73227 4.73229C3.33378 4.13078 4.14934 3.79245 5 3.79154ZM5 2.18752C4.04817 2.18752 3.11773 2.46977 2.32632 2.99857C1.53491 3.52738 0.918078 4.27899 0.553831 5.15836C0.189585 6.03772 0.0942817 7.00536 0.279973 7.93889C0.465664 8.87243 0.92401 9.72993 1.59705 10.403C2.27009 11.076 3.12759 11.5344 4.06112 11.72C4.99466 11.9057 5.96229 11.8104 6.84166 11.4462C7.72102 11.0819 8.47263 10.4651 9.00144 9.6737C9.53024 8.88229 9.81249 7.95184 9.81249 7.00002C9.81249 5.72367 9.30546 4.49959 8.40294 3.59707C7.50042 2.69455 6.27635 2.18752 5 2.18752Z" fill="black"/>
</svg>
